<mxfile host="app.diagrams.net" modified="2023-06-19T18:03:02.695Z" agent="Mozilla/5.0 (Windows NT 10.0; Win64; x64) AppleWebKit/537.36 (KHTML, like Gecko) Chrome/114.0.0.0 Safari/537.36" etag="uWW-8FXzvJ2-NzGiP-Jv" version="21.5.0" type="device">
  <diagram name="Halaman-1" id="PlDD8hu0ttYD9z4HBj_u">
    <mxGraphModel dx="1434" dy="729" grid="1" gridSize="10" guides="1" tooltips="1" connect="1" arrows="1" fold="1" page="1" pageScale="1" pageWidth="827" pageHeight="1169" math="0" shadow="0">
      <root>
        <mxCell id="0" />
        <mxCell id="1" parent="0" />
        <mxCell id="JHjuRr0KbT05Q5GvLW9h-1" value="Activity Diagram Mengelola Produk Apotek" style="swimlane;childLayout=stackLayout;resizeParent=1;resizeParentMax=0;startSize=20;html=1;" parent="1" vertex="1">
          <mxGeometry x="220.00000000000045" y="150" width="625" height="940" as="geometry" />
        </mxCell>
        <mxCell id="JHjuRr0KbT05Q5GvLW9h-2" value="Owner Rumah Sakit" style="swimlane;startSize=20;html=1;" parent="JHjuRr0KbT05Q5GvLW9h-1" vertex="1">
          <mxGeometry y="20" width="370" height="920" as="geometry" />
        </mxCell>
        <mxCell id="JHjuRr0KbT05Q5GvLW9h-3" value="Memilih menu data apotek" style="rounded=1;whiteSpace=wrap;html=1;arcSize=40;fontColor=#000000;fillColor=default;strokeColor=default;" parent="JHjuRr0KbT05Q5GvLW9h-2" vertex="1">
          <mxGeometry x="119.99999999999955" y="100" width="120" height="40" as="geometry" />
        </mxCell>
        <mxCell id="JHjuRr0KbT05Q5GvLW9h-4" value="Menekan tombol lihat produk pada apotek" style="rounded=1;whiteSpace=wrap;html=1;arcSize=40;fontColor=#000000;fillColor=default;strokeColor=default;" parent="JHjuRr0KbT05Q5GvLW9h-2" vertex="1">
          <mxGeometry x="120" y="170" width="130" height="40" as="geometry" />
        </mxCell>
        <mxCell id="JHjuRr0KbT05Q5GvLW9h-5" value="" style="ellipse;html=1;shape=startState;fillColor=#000000;strokeColor=#ff0000;" parent="JHjuRr0KbT05Q5GvLW9h-2" vertex="1">
          <mxGeometry x="159.99999999999955" y="30" width="30" height="30" as="geometry" />
        </mxCell>
        <mxCell id="JHjuRr0KbT05Q5GvLW9h-6" value="" style="edgeStyle=orthogonalEdgeStyle;html=1;verticalAlign=bottom;endArrow=open;endSize=8;strokeColor=default;rounded=0;" parent="JHjuRr0KbT05Q5GvLW9h-2" source="JHjuRr0KbT05Q5GvLW9h-5" edge="1">
          <mxGeometry relative="1" as="geometry">
            <mxPoint x="174.99999999999955" y="100" as="targetPoint" />
          </mxGeometry>
        </mxCell>
        <mxCell id="JHjuRr0KbT05Q5GvLW9h-7" value="menekan checkbox" style="rounded=1;whiteSpace=wrap;html=1;arcSize=40;fontColor=#000000;fillColor=default;strokeColor=default;" parent="JHjuRr0KbT05Q5GvLW9h-2" vertex="1">
          <mxGeometry x="27.5" y="260" width="95" height="30" as="geometry" />
        </mxCell>
        <mxCell id="JHjuRr0KbT05Q5GvLW9h-8" value="menekan tombol edit" style="rounded=1;whiteSpace=wrap;html=1;arcSize=40;fontColor=#000000;fillColor=default;strokeColor=default;" parent="JHjuRr0KbT05Q5GvLW9h-2" vertex="1">
          <mxGeometry x="127.5" y="260" width="95" height="30" as="geometry" />
        </mxCell>
        <mxCell id="JHjuRr0KbT05Q5GvLW9h-9" value="menekan tombol tambah" style="rounded=1;whiteSpace=wrap;html=1;arcSize=40;fontColor=#000000;fillColor=default;strokeColor=default;" parent="JHjuRr0KbT05Q5GvLW9h-2" vertex="1">
          <mxGeometry x="227.5" y="260" width="95" height="30" as="geometry" />
        </mxCell>
        <mxCell id="JHjuRr0KbT05Q5GvLW9h-10" value="" style="endArrow=none;html=1;rounded=0;" parent="JHjuRr0KbT05Q5GvLW9h-2" edge="1">
          <mxGeometry width="50" height="50" relative="1" as="geometry">
            <mxPoint x="69.99999999999955" y="240" as="sourcePoint" />
            <mxPoint x="279.99999999999955" y="240" as="targetPoint" />
          </mxGeometry>
        </mxCell>
        <mxCell id="JHjuRr0KbT05Q5GvLW9h-11" value="" style="endArrow=classic;html=1;rounded=0;entryX=0.554;entryY=0.021;entryDx=0;entryDy=0;entryPerimeter=0;" parent="JHjuRr0KbT05Q5GvLW9h-2" target="JHjuRr0KbT05Q5GvLW9h-9" edge="1">
          <mxGeometry width="50" height="50" relative="1" as="geometry">
            <mxPoint x="279.99999999999955" y="240" as="sourcePoint" />
            <mxPoint x="276.0200000000001" y="260" as="targetPoint" />
          </mxGeometry>
        </mxCell>
        <mxCell id="JHjuRr0KbT05Q5GvLW9h-12" value="Melengkapi form tambah data" style="rounded=1;whiteSpace=wrap;html=1;arcSize=40;fontColor=#000000;fillColor=default;strokeColor=default;" parent="JHjuRr0KbT05Q5GvLW9h-2" vertex="1">
          <mxGeometry x="227.5" y="320" width="95" height="30" as="geometry" />
        </mxCell>
        <mxCell id="JHjuRr0KbT05Q5GvLW9h-13" value="menekan tombol back" style="rounded=1;whiteSpace=wrap;html=1;arcSize=40;fontColor=#000000;fillColor=default;strokeColor=default;" parent="JHjuRr0KbT05Q5GvLW9h-2" vertex="1">
          <mxGeometry x="170" y="390" width="95" height="30" as="geometry" />
        </mxCell>
        <mxCell id="JHjuRr0KbT05Q5GvLW9h-14" style="edgeStyle=orthogonalEdgeStyle;rounded=0;orthogonalLoop=1;jettySize=auto;html=1;" parent="JHjuRr0KbT05Q5GvLW9h-2" source="JHjuRr0KbT05Q5GvLW9h-15" edge="1">
          <mxGeometry relative="1" as="geometry">
            <mxPoint x="399.99999999999955" y="405" as="targetPoint" />
          </mxGeometry>
        </mxCell>
        <mxCell id="JHjuRr0KbT05Q5GvLW9h-15" value="menekan tombol submit" style="rounded=1;whiteSpace=wrap;html=1;arcSize=40;fontColor=#000000;fillColor=default;strokeColor=default;" parent="JHjuRr0KbT05Q5GvLW9h-2" vertex="1">
          <mxGeometry x="270" y="390" width="95" height="30" as="geometry" />
        </mxCell>
        <mxCell id="JHjuRr0KbT05Q5GvLW9h-16" value="" style="endArrow=none;html=1;rounded=0;" parent="JHjuRr0KbT05Q5GvLW9h-2" edge="1">
          <mxGeometry width="50" height="50" relative="1" as="geometry">
            <mxPoint x="219.99999999999955" y="370" as="sourcePoint" />
            <mxPoint x="329.99999999999955" y="370" as="targetPoint" />
          </mxGeometry>
        </mxCell>
        <mxCell id="JHjuRr0KbT05Q5GvLW9h-18" value="Melengkapi form tambah data" style="rounded=1;whiteSpace=wrap;html=1;arcSize=40;fontColor=#000000;fillColor=default;strokeColor=default;" parent="JHjuRr0KbT05Q5GvLW9h-2" vertex="1">
          <mxGeometry x="227.5" y="550" width="95" height="30" as="geometry" />
        </mxCell>
        <mxCell id="JHjuRr0KbT05Q5GvLW9h-19" value="menekan tombol back" style="rounded=1;whiteSpace=wrap;html=1;arcSize=40;fontColor=#000000;fillColor=default;strokeColor=default;" parent="JHjuRr0KbT05Q5GvLW9h-2" vertex="1">
          <mxGeometry x="170" y="610" width="95" height="30" as="geometry" />
        </mxCell>
        <mxCell id="JHjuRr0KbT05Q5GvLW9h-20" value="menekan tombol submit" style="rounded=1;whiteSpace=wrap;html=1;arcSize=40;fontColor=#000000;fillColor=default;strokeColor=default;" parent="JHjuRr0KbT05Q5GvLW9h-2" vertex="1">
          <mxGeometry x="270" y="610" width="95" height="30" as="geometry" />
        </mxCell>
        <mxCell id="JHjuRr0KbT05Q5GvLW9h-21" value="" style="endArrow=none;html=1;rounded=0;" parent="JHjuRr0KbT05Q5GvLW9h-2" edge="1">
          <mxGeometry width="50" height="50" relative="1" as="geometry">
            <mxPoint x="219.99999999999955" y="590" as="sourcePoint" />
            <mxPoint x="329.99999999999955" y="590" as="targetPoint" />
          </mxGeometry>
        </mxCell>
        <mxCell id="JHjuRr0KbT05Q5GvLW9h-22" value="" style="endArrow=classic;html=1;rounded=0;entryX=0.523;entryY=-0.027;entryDx=0;entryDy=0;entryPerimeter=0;" parent="JHjuRr0KbT05Q5GvLW9h-2" target="JHjuRr0KbT05Q5GvLW9h-19" edge="1">
          <mxGeometry width="50" height="50" relative="1" as="geometry">
            <mxPoint x="219.99999999999955" y="590" as="sourcePoint" />
            <mxPoint x="369.99999999999955" y="570" as="targetPoint" />
          </mxGeometry>
        </mxCell>
        <mxCell id="JHjuRr0KbT05Q5GvLW9h-23" value="" style="endArrow=classic;html=1;rounded=0;entryX=0.632;entryY=0.017;entryDx=0;entryDy=0;entryPerimeter=0;" parent="JHjuRr0KbT05Q5GvLW9h-2" target="JHjuRr0KbT05Q5GvLW9h-20" edge="1">
          <mxGeometry width="50" height="50" relative="1" as="geometry">
            <mxPoint x="329.99999999999955" y="590" as="sourcePoint" />
            <mxPoint x="369.99999999999955" y="570" as="targetPoint" />
          </mxGeometry>
        </mxCell>
        <mxCell id="JHjuRr0KbT05Q5GvLW9h-24" value="menekan tombol hapus data" style="rounded=1;whiteSpace=wrap;html=1;arcSize=40;fontColor=#000000;fillColor=default;strokeColor=default;" parent="JHjuRr0KbT05Q5GvLW9h-2" vertex="1">
          <mxGeometry x="210" y="755" width="95" height="30" as="geometry" />
        </mxCell>
        <mxCell id="JHjuRr0KbT05Q5GvLW9h-25" value="" style="edgeStyle=orthogonalEdgeStyle;rounded=0;orthogonalLoop=1;jettySize=auto;html=1;" parent="JHjuRr0KbT05Q5GvLW9h-1" edge="1">
          <mxGeometry relative="1" as="geometry">
            <mxPoint x="174.99999999999955" y="140" as="sourcePoint" />
          </mxGeometry>
        </mxCell>
        <mxCell id="JHjuRr0KbT05Q5GvLW9h-26" value="" style="edgeStyle=orthogonalEdgeStyle;rounded=0;orthogonalLoop=1;jettySize=auto;html=1;" parent="JHjuRr0KbT05Q5GvLW9h-1" source="JHjuRr0KbT05Q5GvLW9h-3" target="JHjuRr0KbT05Q5GvLW9h-33" edge="1">
          <mxGeometry relative="1" as="geometry" />
        </mxCell>
        <mxCell id="JHjuRr0KbT05Q5GvLW9h-27" value="" style="edgeStyle=orthogonalEdgeStyle;rounded=0;orthogonalLoop=1;jettySize=auto;html=1;" parent="JHjuRr0KbT05Q5GvLW9h-1" source="JHjuRr0KbT05Q5GvLW9h-4" target="JHjuRr0KbT05Q5GvLW9h-34" edge="1">
          <mxGeometry relative="1" as="geometry" />
        </mxCell>
        <mxCell id="JHjuRr0KbT05Q5GvLW9h-28" style="edgeStyle=orthogonalEdgeStyle;rounded=0;orthogonalLoop=1;jettySize=auto;html=1;entryX=0.448;entryY=-0.019;entryDx=0;entryDy=0;entryPerimeter=0;" parent="JHjuRr0KbT05Q5GvLW9h-1" source="JHjuRr0KbT05Q5GvLW9h-33" target="JHjuRr0KbT05Q5GvLW9h-4" edge="1">
          <mxGeometry relative="1" as="geometry">
            <Array as="points">
              <mxPoint x="380" y="170" />
              <mxPoint x="114" y="170" />
            </Array>
          </mxGeometry>
        </mxCell>
        <mxCell id="JHjuRr0KbT05Q5GvLW9h-29" value="" style="edgeStyle=orthogonalEdgeStyle;rounded=0;orthogonalLoop=1;jettySize=auto;html=1;" parent="JHjuRr0KbT05Q5GvLW9h-1" source="JHjuRr0KbT05Q5GvLW9h-9" target="JHjuRr0KbT05Q5GvLW9h-35" edge="1">
          <mxGeometry relative="1" as="geometry" />
        </mxCell>
        <mxCell id="JHjuRr0KbT05Q5GvLW9h-30" style="edgeStyle=orthogonalEdgeStyle;rounded=0;orthogonalLoop=1;jettySize=auto;html=1;entryX=1;entryY=0.5;entryDx=0;entryDy=0;" parent="JHjuRr0KbT05Q5GvLW9h-1" source="JHjuRr0KbT05Q5GvLW9h-13" target="JHjuRr0KbT05Q5GvLW9h-34" edge="1">
          <mxGeometry relative="1" as="geometry">
            <Array as="points">
              <mxPoint x="218" y="490" />
              <mxPoint x="570" y="490" />
              <mxPoint x="570" y="210" />
            </Array>
          </mxGeometry>
        </mxCell>
        <mxCell id="JHjuRr0KbT05Q5GvLW9h-31" style="edgeStyle=orthogonalEdgeStyle;rounded=0;orthogonalLoop=1;jettySize=auto;html=1;entryX=0.5;entryY=0;entryDx=0;entryDy=0;" parent="JHjuRr0KbT05Q5GvLW9h-1" source="JHjuRr0KbT05Q5GvLW9h-42" target="JHjuRr0KbT05Q5GvLW9h-18" edge="1">
          <mxGeometry relative="1" as="geometry">
            <Array as="points">
              <mxPoint x="497" y="550" />
              <mxPoint x="275" y="550" />
            </Array>
          </mxGeometry>
        </mxCell>
        <mxCell id="JHjuRr0KbT05Q5GvLW9h-32" value="Sistem" style="swimlane;startSize=20;html=1;" parent="JHjuRr0KbT05Q5GvLW9h-1" vertex="1">
          <mxGeometry x="370" y="20" width="255" height="920" as="geometry" />
        </mxCell>
        <mxCell id="JHjuRr0KbT05Q5GvLW9h-33" value="Menampilkan data apotek" style="rounded=1;whiteSpace=wrap;html=1;arcSize=40;fontColor=#000000;fillColor=default;strokeColor=default;" parent="JHjuRr0KbT05Q5GvLW9h-32" vertex="1">
          <mxGeometry x="44.999999999999545" y="100" width="120" height="40" as="geometry" />
        </mxCell>
        <mxCell id="JHjuRr0KbT05Q5GvLW9h-34" value="Menampilkan data produk" style="rounded=1;whiteSpace=wrap;html=1;arcSize=40;fontColor=#000000;fillColor=default;strokeColor=default;" parent="JHjuRr0KbT05Q5GvLW9h-32" vertex="1">
          <mxGeometry x="44.999999999999545" y="170" width="120" height="40" as="geometry" />
        </mxCell>
        <mxCell id="JHjuRr0KbT05Q5GvLW9h-35" value="Menampilkan form tambah data" style="rounded=1;whiteSpace=wrap;html=1;arcSize=40;fontColor=#000000;fillColor=default;strokeColor=default;" parent="JHjuRr0KbT05Q5GvLW9h-32" vertex="1">
          <mxGeometry x="44.999999999999545" y="255" width="120" height="40" as="geometry" />
        </mxCell>
        <mxCell id="JHjuRr0KbT05Q5GvLW9h-36" value="" style="shape=line;html=1;strokeWidth=6;strokeColor=default;rotation=90;" parent="JHjuRr0KbT05Q5GvLW9h-32" vertex="1">
          <mxGeometry y="400" width="70" height="10" as="geometry" />
        </mxCell>
        <mxCell id="JHjuRr0KbT05Q5GvLW9h-37" style="edgeStyle=orthogonalEdgeStyle;rounded=0;orthogonalLoop=1;jettySize=auto;html=1;exitX=1;exitY=0.5;exitDx=0;exitDy=0;" parent="JHjuRr0KbT05Q5GvLW9h-32" source="JHjuRr0KbT05Q5GvLW9h-38" edge="1">
          <mxGeometry relative="1" as="geometry">
            <mxPoint x="204" y="430" as="sourcePoint" />
            <mxPoint x="139.99999999999955" y="895" as="targetPoint" />
            <Array as="points">
              <mxPoint x="234" y="430" />
              <mxPoint x="234" y="895" />
            </Array>
          </mxGeometry>
        </mxCell>
        <mxCell id="JHjuRr0KbT05Q5GvLW9h-38" value="menampilkan notif berhasil tambah data&amp;nbsp;" style="rounded=1;whiteSpace=wrap;html=1;arcSize=40;fontColor=#000000;fillColor=default;strokeColor=default;" parent="JHjuRr0KbT05Q5GvLW9h-32" vertex="1">
          <mxGeometry x="60" y="410" width="120" height="40" as="geometry" />
        </mxCell>
        <mxCell id="JHjuRr0KbT05Q5GvLW9h-39" style="edgeStyle=orthogonalEdgeStyle;rounded=0;orthogonalLoop=1;jettySize=auto;html=1;entryX=1;entryY=0.5;entryDx=0;entryDy=0;" parent="JHjuRr0KbT05Q5GvLW9h-32" source="JHjuRr0KbT05Q5GvLW9h-40" target="JHjuRr0KbT05Q5GvLW9h-34" edge="1">
          <mxGeometry relative="1" as="geometry">
            <Array as="points">
              <mxPoint x="200" y="380" />
              <mxPoint x="200" y="190" />
            </Array>
          </mxGeometry>
        </mxCell>
        <mxCell id="JHjuRr0KbT05Q5GvLW9h-40" value="Menyimpan data" style="rounded=1;whiteSpace=wrap;html=1;arcSize=40;fontColor=#000000;fillColor=default;strokeColor=default;" parent="JHjuRr0KbT05Q5GvLW9h-32" vertex="1">
          <mxGeometry x="60" y="360" width="120" height="40" as="geometry" />
        </mxCell>
        <mxCell id="JHjuRr0KbT05Q5GvLW9h-41" value="" style="endArrow=classic;html=1;rounded=0;entryX=0;entryY=0.5;entryDx=0;entryDy=0;exitX=0.133;exitY=0.16;exitDx=0;exitDy=0;exitPerimeter=0;" parent="JHjuRr0KbT05Q5GvLW9h-32" source="JHjuRr0KbT05Q5GvLW9h-36" target="JHjuRr0KbT05Q5GvLW9h-40" edge="1">
          <mxGeometry width="50" height="50" relative="1" as="geometry">
            <mxPoint x="-50.000000000000455" y="460" as="sourcePoint" />
            <mxPoint x="-4.547473508864641e-13" y="410" as="targetPoint" />
          </mxGeometry>
        </mxCell>
        <mxCell id="JHjuRr0KbT05Q5GvLW9h-42" value="Menampilkan form edit data" style="rounded=1;whiteSpace=wrap;html=1;arcSize=40;fontColor=#000000;fillColor=default;strokeColor=default;" parent="JHjuRr0KbT05Q5GvLW9h-32" vertex="1">
          <mxGeometry x="67.49999999999955" y="480" width="120" height="40" as="geometry" />
        </mxCell>
        <mxCell id="JHjuRr0KbT05Q5GvLW9h-43" style="edgeStyle=orthogonalEdgeStyle;rounded=0;orthogonalLoop=1;jettySize=auto;html=1;exitX=1;exitY=0.5;exitDx=0;exitDy=0;" parent="JHjuRr0KbT05Q5GvLW9h-32" source="JHjuRr0KbT05Q5GvLW9h-20" edge="1">
          <mxGeometry relative="1" as="geometry">
            <mxPoint x="34.999999999999545" y="625" as="targetPoint" />
            <mxPoint y="625" as="sourcePoint" />
          </mxGeometry>
        </mxCell>
        <mxCell id="JHjuRr0KbT05Q5GvLW9h-44" value="" style="shape=line;html=1;strokeWidth=6;strokeColor=default;rotation=90;" parent="JHjuRr0KbT05Q5GvLW9h-32" vertex="1">
          <mxGeometry x="5" y="620" width="70" height="10" as="geometry" />
        </mxCell>
        <mxCell id="JHjuRr0KbT05Q5GvLW9h-45" style="edgeStyle=orthogonalEdgeStyle;rounded=0;orthogonalLoop=1;jettySize=auto;html=1;entryX=1;entryY=0.5;entryDx=0;entryDy=0;" parent="JHjuRr0KbT05Q5GvLW9h-32" source="JHjuRr0KbT05Q5GvLW9h-46" target="JHjuRr0KbT05Q5GvLW9h-54" edge="1">
          <mxGeometry relative="1" as="geometry">
            <Array as="points">
              <mxPoint x="210" y="650" />
              <mxPoint x="210" y="895" />
            </Array>
          </mxGeometry>
        </mxCell>
        <mxCell id="JHjuRr0KbT05Q5GvLW9h-46" value="menampilkan notif berhasil ubah data&amp;nbsp;" style="rounded=1;whiteSpace=wrap;html=1;arcSize=40;fontColor=#000000;fillColor=default;strokeColor=default;" parent="JHjuRr0KbT05Q5GvLW9h-32" vertex="1">
          <mxGeometry x="65" y="630" width="120" height="40" as="geometry" />
        </mxCell>
        <mxCell id="JHjuRr0KbT05Q5GvLW9h-47" style="edgeStyle=orthogonalEdgeStyle;rounded=0;orthogonalLoop=1;jettySize=auto;html=1;entryX=1;entryY=0.5;entryDx=0;entryDy=0;" parent="JHjuRr0KbT05Q5GvLW9h-32" source="JHjuRr0KbT05Q5GvLW9h-48" target="JHjuRr0KbT05Q5GvLW9h-34" edge="1">
          <mxGeometry relative="1" as="geometry">
            <Array as="points">
              <mxPoint x="200" y="600" />
              <mxPoint x="200" y="190" />
            </Array>
          </mxGeometry>
        </mxCell>
        <mxCell id="JHjuRr0KbT05Q5GvLW9h-48" value="Menyimpan data" style="rounded=1;whiteSpace=wrap;html=1;arcSize=40;fontColor=#000000;fillColor=default;strokeColor=default;" parent="JHjuRr0KbT05Q5GvLW9h-32" vertex="1">
          <mxGeometry x="65" y="580" width="120" height="40" as="geometry" />
        </mxCell>
        <mxCell id="JHjuRr0KbT05Q5GvLW9h-49" value="" style="endArrow=classic;html=1;rounded=0;entryX=0;entryY=0.5;entryDx=0;entryDy=0;exitX=0.133;exitY=0.16;exitDx=0;exitDy=0;exitPerimeter=0;" parent="JHjuRr0KbT05Q5GvLW9h-32" source="JHjuRr0KbT05Q5GvLW9h-44" target="JHjuRr0KbT05Q5GvLW9h-48" edge="1">
          <mxGeometry width="50" height="50" relative="1" as="geometry">
            <mxPoint x="-45.000000000000455" y="680" as="sourcePoint" />
            <mxPoint x="4.999999999999545" y="630" as="targetPoint" />
          </mxGeometry>
        </mxCell>
        <mxCell id="JHjuRr0KbT05Q5GvLW9h-50" value="" style="endArrow=classic;html=1;rounded=0;exitX=0.87;exitY=0.24;exitDx=0;exitDy=0;exitPerimeter=0;" parent="JHjuRr0KbT05Q5GvLW9h-32" source="JHjuRr0KbT05Q5GvLW9h-44" edge="1">
          <mxGeometry width="50" height="50" relative="1" as="geometry">
            <mxPoint x="-45.000000000000455" y="680" as="sourcePoint" />
            <mxPoint x="64.99999999999955" y="650" as="targetPoint" />
          </mxGeometry>
        </mxCell>
        <mxCell id="JHjuRr0KbT05Q5GvLW9h-51" value="Menampilkan tombol hapus data" style="rounded=1;whiteSpace=wrap;html=1;arcSize=40;fontColor=#000000;fillColor=default;strokeColor=default;" parent="JHjuRr0KbT05Q5GvLW9h-32" vertex="1">
          <mxGeometry x="65" y="690" width="120" height="40" as="geometry" />
        </mxCell>
        <mxCell id="JHjuRr0KbT05Q5GvLW9h-52" value="" style="edgeStyle=orthogonalEdgeStyle;rounded=0;orthogonalLoop=1;jettySize=auto;html=1;" parent="JHjuRr0KbT05Q5GvLW9h-32" source="JHjuRr0KbT05Q5GvLW9h-53" target="JHjuRr0KbT05Q5GvLW9h-56" edge="1">
          <mxGeometry relative="1" as="geometry" />
        </mxCell>
        <mxCell id="JHjuRr0KbT05Q5GvLW9h-53" value="menghapus data" style="rounded=1;whiteSpace=wrap;html=1;arcSize=40;fontColor=#000000;fillColor=default;strokeColor=default;" parent="JHjuRr0KbT05Q5GvLW9h-32" vertex="1">
          <mxGeometry x="65" y="750" width="120" height="40" as="geometry" />
        </mxCell>
        <mxCell id="JHjuRr0KbT05Q5GvLW9h-54" value="" style="ellipse;html=1;shape=endState;fillColor=#000000;strokeColor=#ff0000;" parent="JHjuRr0KbT05Q5GvLW9h-32" vertex="1">
          <mxGeometry x="109.99999999999955" y="880" width="30" height="30" as="geometry" />
        </mxCell>
        <mxCell id="JHjuRr0KbT05Q5GvLW9h-55" value="" style="edgeStyle=orthogonalEdgeStyle;rounded=0;orthogonalLoop=1;jettySize=auto;html=1;" parent="JHjuRr0KbT05Q5GvLW9h-32" source="JHjuRr0KbT05Q5GvLW9h-56" target="JHjuRr0KbT05Q5GvLW9h-54" edge="1">
          <mxGeometry relative="1" as="geometry" />
        </mxCell>
        <mxCell id="JHjuRr0KbT05Q5GvLW9h-56" value="menampilkan notif berhasil hapus data&amp;nbsp;" style="rounded=1;whiteSpace=wrap;html=1;arcSize=40;fontColor=#000000;fillColor=default;strokeColor=default;" parent="JHjuRr0KbT05Q5GvLW9h-32" vertex="1">
          <mxGeometry x="65" y="820" width="120" height="40" as="geometry" />
        </mxCell>
        <mxCell id="JHjuRr0KbT05Q5GvLW9h-57" style="edgeStyle=orthogonalEdgeStyle;rounded=0;orthogonalLoop=1;jettySize=auto;html=1;entryX=1;entryY=0.25;entryDx=0;entryDy=0;exitX=0.5;exitY=1;exitDx=0;exitDy=0;" parent="JHjuRr0KbT05Q5GvLW9h-32" source="JHjuRr0KbT05Q5GvLW9h-19" edge="1">
          <mxGeometry relative="1" as="geometry">
            <mxPoint x="-151.27515151515195" y="650.0000000000002" as="sourcePoint" />
            <mxPoint x="166.23999999999955" y="190" as="targetPoint" />
            <Array as="points">
              <mxPoint x="-151" y="640" />
              <mxPoint x="-151" y="680" />
              <mxPoint x="221" y="680" />
              <mxPoint x="221" y="190" />
            </Array>
          </mxGeometry>
        </mxCell>
        <mxCell id="JHjuRr0KbT05Q5GvLW9h-58" style="edgeStyle=orthogonalEdgeStyle;rounded=0;orthogonalLoop=1;jettySize=auto;html=1;entryX=0;entryY=0.5;entryDx=0;entryDy=0;" parent="JHjuRr0KbT05Q5GvLW9h-1" source="JHjuRr0KbT05Q5GvLW9h-7" target="JHjuRr0KbT05Q5GvLW9h-51" edge="1">
          <mxGeometry relative="1" as="geometry">
            <Array as="points">
              <mxPoint x="75" y="730" />
            </Array>
          </mxGeometry>
        </mxCell>
        <mxCell id="JHjuRr0KbT05Q5GvLW9h-59" style="edgeStyle=orthogonalEdgeStyle;rounded=0;orthogonalLoop=1;jettySize=auto;html=1;entryX=0;entryY=0.5;entryDx=0;entryDy=0;" parent="JHjuRr0KbT05Q5GvLW9h-1" source="JHjuRr0KbT05Q5GvLW9h-24" target="JHjuRr0KbT05Q5GvLW9h-53" edge="1">
          <mxGeometry relative="1" as="geometry" />
        </mxCell>
        <mxCell id="JHjuRr0KbT05Q5GvLW9h-60" style="edgeStyle=orthogonalEdgeStyle;rounded=0;orthogonalLoop=1;jettySize=auto;html=1;entryX=0.5;entryY=0;entryDx=0;entryDy=0;" parent="JHjuRr0KbT05Q5GvLW9h-1" source="JHjuRr0KbT05Q5GvLW9h-51" target="JHjuRr0KbT05Q5GvLW9h-24" edge="1">
          <mxGeometry relative="1" as="geometry">
            <Array as="points">
              <mxPoint x="495" y="760" />
              <mxPoint x="258" y="760" />
            </Array>
          </mxGeometry>
        </mxCell>
        <mxCell id="JHjuRr0KbT05Q5GvLW9h-61" style="edgeStyle=orthogonalEdgeStyle;rounded=0;orthogonalLoop=1;jettySize=auto;html=1;" parent="JHjuRr0KbT05Q5GvLW9h-1" source="JHjuRr0KbT05Q5GvLW9h-35" target="JHjuRr0KbT05Q5GvLW9h-12" edge="1">
          <mxGeometry relative="1" as="geometry">
            <Array as="points">
              <mxPoint x="475" y="320" />
              <mxPoint x="280" y="320" />
            </Array>
          </mxGeometry>
        </mxCell>
        <mxCell id="JHjuRr0KbT05Q5GvLW9h-17" style="edgeStyle=orthogonalEdgeStyle;rounded=0;orthogonalLoop=1;jettySize=auto;html=1;exitX=0.25;exitY=1;exitDx=0;exitDy=0;" parent="JHjuRr0KbT05Q5GvLW9h-1" source="JHjuRr0KbT05Q5GvLW9h-8" target="JHjuRr0KbT05Q5GvLW9h-42" edge="1">
          <mxGeometry relative="1" as="geometry">
            <mxPoint x="149.99999999999955" y="320" as="sourcePoint" />
            <mxPoint x="437.49999999999955" y="510" as="targetPoint" />
            <Array as="points">
              <mxPoint x="150" y="310" />
              <mxPoint x="150" y="520" />
            </Array>
          </mxGeometry>
        </mxCell>
        <mxCell id="JHjuRr0KbT05Q5GvLW9h-62" value="" style="endArrow=classic;html=1;rounded=0;entryX=0.443;entryY=-0.014;entryDx=0;entryDy=0;entryPerimeter=0;" parent="1" target="JHjuRr0KbT05Q5GvLW9h-7" edge="1">
          <mxGeometry width="50" height="50" relative="1" as="geometry">
            <mxPoint x="290" y="410" as="sourcePoint" />
            <mxPoint x="300" y="370" as="targetPoint" />
          </mxGeometry>
        </mxCell>
        <mxCell id="JHjuRr0KbT05Q5GvLW9h-63" value="" style="endArrow=classic;html=1;rounded=0;entryX=0.447;entryY=0;entryDx=0;entryDy=0;entryPerimeter=0;" parent="1" target="JHjuRr0KbT05Q5GvLW9h-8" edge="1">
          <mxGeometry width="50" height="50" relative="1" as="geometry">
            <mxPoint x="390" y="410" as="sourcePoint" />
            <mxPoint x="300" y="370" as="targetPoint" />
          </mxGeometry>
        </mxCell>
        <mxCell id="JHjuRr0KbT05Q5GvLW9h-64" value="" style="endArrow=none;html=1;rounded=0;entryX=0.461;entryY=0.997;entryDx=0;entryDy=0;entryPerimeter=0;" parent="1" target="JHjuRr0KbT05Q5GvLW9h-34" edge="1">
          <mxGeometry width="50" height="50" relative="1" as="geometry">
            <mxPoint x="690" y="400" as="sourcePoint" />
            <mxPoint x="530" y="430" as="targetPoint" />
          </mxGeometry>
        </mxCell>
        <mxCell id="JHjuRr0KbT05Q5GvLW9h-65" value="" style="endArrow=none;html=1;rounded=0;" parent="1" edge="1">
          <mxGeometry width="50" height="50" relative="1" as="geometry">
            <mxPoint x="390" y="400" as="sourcePoint" />
            <mxPoint x="690" y="400" as="targetPoint" />
          </mxGeometry>
        </mxCell>
        <mxCell id="JHjuRr0KbT05Q5GvLW9h-66" value="" style="endArrow=none;html=1;rounded=0;" parent="1" edge="1">
          <mxGeometry width="50" height="50" relative="1" as="geometry">
            <mxPoint x="390" y="410" as="sourcePoint" />
            <mxPoint x="390" y="400" as="targetPoint" />
          </mxGeometry>
        </mxCell>
        <mxCell id="JHjuRr0KbT05Q5GvLW9h-67" value="" style="endArrow=classic;html=1;rounded=0;entryX=0.523;entryY=-0.027;entryDx=0;entryDy=0;entryPerimeter=0;" parent="1" target="JHjuRr0KbT05Q5GvLW9h-13" edge="1">
          <mxGeometry width="50" height="50" relative="1" as="geometry">
            <mxPoint x="440" y="540" as="sourcePoint" />
            <mxPoint x="590" y="520" as="targetPoint" />
          </mxGeometry>
        </mxCell>
        <mxCell id="JHjuRr0KbT05Q5GvLW9h-68" value="" style="endArrow=classic;html=1;rounded=0;entryX=0.632;entryY=0.017;entryDx=0;entryDy=0;entryPerimeter=0;" parent="1" target="JHjuRr0KbT05Q5GvLW9h-15" edge="1">
          <mxGeometry width="50" height="50" relative="1" as="geometry">
            <mxPoint x="550" y="540" as="sourcePoint" />
            <mxPoint x="590" y="520" as="targetPoint" />
          </mxGeometry>
        </mxCell>
        <mxCell id="JHjuRr0KbT05Q5GvLW9h-69" value="" style="endArrow=none;html=1;rounded=0;entryX=0.553;entryY=1.057;entryDx=0;entryDy=0;entryPerimeter=0;" parent="1" target="JHjuRr0KbT05Q5GvLW9h-12" edge="1">
          <mxGeometry width="50" height="50" relative="1" as="geometry">
            <mxPoint x="500" y="540" as="sourcePoint" />
            <mxPoint x="590" y="520" as="targetPoint" />
          </mxGeometry>
        </mxCell>
        <mxCell id="JHjuRr0KbT05Q5GvLW9h-70" value="" style="endArrow=classic;html=1;rounded=0;exitX=0.87;exitY=0.24;exitDx=0;exitDy=0;exitPerimeter=0;" parent="1" source="JHjuRr0KbT05Q5GvLW9h-36" edge="1">
          <mxGeometry width="50" height="50" relative="1" as="geometry">
            <mxPoint x="540" y="630" as="sourcePoint" />
            <mxPoint x="650" y="600" as="targetPoint" />
          </mxGeometry>
        </mxCell>
        <mxCell id="JHjuRr0KbT05Q5GvLW9h-71" value="" style="endArrow=none;html=1;rounded=0;entryX=0.5;entryY=1;entryDx=0;entryDy=0;" parent="1" target="JHjuRr0KbT05Q5GvLW9h-18" edge="1">
          <mxGeometry width="50" height="50" relative="1" as="geometry">
            <mxPoint x="495" y="760" as="sourcePoint" />
            <mxPoint x="500" y="720" as="targetPoint" />
          </mxGeometry>
        </mxCell>
      </root>
    </mxGraphModel>
  </diagram>
</mxfile>
